<?xml version="1.0" encoding="UTF-8"?>
<svg width="800px" height="600px" viewBox="0 0 800 600" version="1.1" xmlns="http://www.w3.org/2000/svg" xmlns:xlink="http://www.w3.org/1999/xlink">
    <defs>
        <linearGradient x1="0%" y1="0%" x2="100%" y2="100%" id="mapGradient">
            <stop stop-color="#f8f9fa" offset="0%"></stop>
            <stop stop-color="#e9ecef" offset="100%"></stop>
        </linearGradient>
        <linearGradient x1="0%" y1="0%" x2="100%" y2="100%" id="routeGradient">
            <stop stop-color="#4361ee" offset="0%"></stop>
            <stop stop-color="#f72585" offset="100%"></stop>
        </linearGradient>
        <linearGradient x1="0%" y1="0%" x2="100%" y2="100%" id="pinGradient">
            <stop stop-color="#f72585" offset="0%"></stop>
            <stop stop-color="#7209b7" offset="100%"></stop>
        </linearGradient>
        <linearGradient x1="0%" y1="0%" x2="100%" y2="100%" id="landmarkGradient">
            <stop stop-color="#4cc9f0" offset="0%"></stop>
            <stop stop-color="#4361ee" offset="100%"></stop>
        </linearGradient>
        <filter id="mapShadow" x="-20%" y="-20%" width="140%" height="140%">
            <feGaussianBlur in="SourceAlpha" stdDeviation="5"></feGaussianBlur>
            <feOffset dx="3" dy="3" result="offsetblur"></feOffset>
            <feComponentTransfer>
                <feFuncA type="linear" slope="0.3"></feFuncA>
            </feComponentTransfer>
            <feMerge>
                <feMergeNode></feMergeNode>
                <feMergeNode in="SourceGraphic"></feMergeNode>
            </feMerge>
        </filter>
    </defs>
    
    <!-- Map Background -->
    <rect width="800" height="600" rx="20" ry="20" fill="url(#mapGradient)" filter="url(#mapShadow)"></rect>
    
    <!-- Map Grid Lines -->
    <g stroke="#dee2e6" stroke-width="1" opacity="0.5">
        <!-- Horizontal Lines -->
        <line x1="50" y1="100" x2="750" y2="100"></line>
        <line x1="50" y1="200" x2="750" y2="200"></line>
        <line x1="50" y1="300" x2="750" y2="300"></line>
        <line x1="50" y1="400" x2="750" y2="400"></line>
        <line x1="50" y1="500" x2="750" y2="500"></line>
        
        <!-- Vertical Lines -->
        <line x1="150" y1="50" x2="150" y2="550"></line>
        <line x1="250" y1="50" x2="250" y2="550"></line>
        <line x1="350" y1="50" x2="350" y2="550"></line>
        <line x1="450" y1="50" x2="450" y2="550"></line>
        <line x1="550" y1="50" x2="550" y2="550"></line>
        <line x1="650" y1="50" x2="650" y2="550"></line>
    </g>
    
    <!-- Map Features -->
    <g>
        <!-- Cities/Points -->
        <circle cx="150" cy="200" r="8" fill="#e9ecef" stroke="#ced4da" stroke-width="2"></circle>
        <circle cx="250" cy="350" r="8" fill="#e9ecef" stroke="#ced4da" stroke-width="2"></circle>
        <circle cx="400" cy="150" r="8" fill="#e9ecef" stroke="#ced4da" stroke-width="2"></circle>
        <circle cx="550" cy="250" r="8" fill="#e9ecef" stroke="#ced4da" stroke-width="2"></circle>
        <circle cx="650" cy="400" r="8" fill="#e9ecef" stroke="#ced4da" stroke-width="2"></circle>
        
        <!-- Routes -->
        <path d="M150,200 C200,250 220,300 250,350 C280,400 350,200 400,150 C450,100 500,200 550,250 C600,300 630,350 650,400" stroke="url(#routeGradient)" stroke-width="4" fill="none" stroke-linecap="round" stroke-linejoin="round" class="route"></path>
    </g>
    
    <!-- Location Pins -->
    <g class="pins">
        <!-- Start Pin -->
        <g transform="translate(150, 200)" class="pin start-pin">
            <path d="M0,-30 C-15,-30 -25,-15 -25,0 C-25,20 0,40 0,40 C0,40 25,20 25,0 C25,-15 15,-30 0,-30 Z" fill="url(#pinGradient)" filter="url(#mapShadow)"></path>
            <circle cx="0" cy="0" r="8" fill="white"></circle>
        </g>
        
        <!-- End Pin -->
        <g transform="translate(650, 400)" class="pin end-pin">
            <path d="M0,-30 C-15,-30 -25,-15 -25,0 C-25,20 0,40 0,40 C0,40 25,20 25,0 C25,-15 15,-30 0,-30 Z" fill="url(#pinGradient)" filter="url(#mapShadow)"></path>
            <circle cx="0" cy="0" r="8" fill="white"></circle>
        </g>
    </g>
    
    <!-- Landmarks -->
    <g class="landmarks">
        <!-- Landmark 1 -->
        <g transform="translate(400, 150)" class="landmark">
            <rect x="-15" y="-30" width="30" height="30" rx="5" ry="5" fill="url(#landmarkGradient)" filter="url(#mapShadow)"></rect>
            <path d="M-10,-20 L10,-20 M-10,-10 L10,-10 M-10,0 L10,0" stroke="white" stroke-width="2" stroke-linecap="round"></path>
        </g>
        
        <!-- Landmark 2 -->
        <g transform="translate(550, 250)" class="landmark">
            <rect x="-15" y="-30" width="30" height="30" rx="5" ry="5" fill="url(#landmarkGradient)" filter="url(#mapShadow)"></rect>
            <path d="M-10,-20 L10,-20 M-10,-10 L10,-10 M-10,0 L10,0" stroke="white" stroke-width="2" stroke-linecap="round"></path>
        </g>
    </g>
    
    <!-- Compass -->
    <g transform="translate(700, 100)" class="compass">
        <circle cx="0" cy="0" r="30" fill="white" stroke="#ced4da" stroke-width="2" filter="url(#mapShadow)"></circle>
        <path d="M0,-25 L0,25 M-25,0 L25,0" stroke="#adb5bd" stroke-width="1"></path>
        <path d="M0,-20 L5,-5 L0,0 L-5,-5 Z" fill="#f72585"></path>
        <path d="M0,20 L-5,5 L0,0 L5,5 Z" fill="#4361ee"></path>
        <text x="0" y="-30" text-anchor="middle" font-family="Arial" font-size="10" fill="#6c757d">N</text>
        <text x="30" y="0" text-anchor="middle" font-family="Arial" font-size="10" fill="#6c757d" dominant-baseline="middle">E</text>
        <text x="0" y="40" text-anchor="middle" font-family="Arial" font-size="10" fill="#6c757d">S</text>
        <text x="-30" y="0" text-anchor="middle" font-family="Arial" font-size="10" fill="#6c757d" dominant-baseline="middle">W</text>
    </g>
    
    <!-- Scale -->
    <g transform="translate(100, 550)" class="scale">
        <rect x="0" y="0" width="200" height="10" fill="white" stroke="#ced4da" stroke-width="1"></rect>
        <rect x="0" y="0" width="100" height="10" fill="#4361ee" stroke="#ced4da" stroke-width="1"></rect>
        <text x="0" y="25" font-family="Arial" font-size="10" fill="#6c757d">0</text>
        <text x="100" y="25" font-family="Arial" font-size="10" fill="#6c757d">50 km</text>
        <text x="200" y="25" font-family="Arial" font-size="10" fill="#6c757d">100 km</text>
    </g>
    
    <style>
        @keyframes pulse {
            0% { transform: scale(1); opacity: 1; }
            50% { transform: scale(1.2); opacity: 0.8; }
            100% { transform: scale(1); opacity: 1; }
        }
        
        @keyframes float {
            0% { transform: translateY(0); }
            50% { transform: translateY(-10px); }
            100% { transform: translateY(0); }
        }
        
        @keyframes rotate {
            from { transform: rotate(0deg); }
            to { transform: rotate(360deg); }
        }
        
        @keyframes dash {
            to { stroke-dashoffset: 1000; }
        }
        
        .pin {
            animation: pulse 2s ease-in-out infinite;
            transform-origin: center bottom;
        }
        
        .start-pin {
            animation-delay: 0s;
        }
        
        .end-pin {
            animation-delay: 1s;
        }
        
        .landmark {
            animation: float 4s ease-in-out infinite;
        }
        
        .compass {
            animation: rotate 20s linear infinite;
        }
        
        .route {
            stroke-dasharray: 10, 5;
            animation: dash 30s linear infinite;
        }
    </style>
</svg>
