<?xml version="1.0" encoding="UTF-8"?>
<svg width="500" height="300" viewBox="0 0 500 300" fill="none" xmlns="http://www.w3.org/2000/svg">
  <!-- Gradient Definitions -->
  <defs>
    <linearGradient id="blueGradient" x1="0%" y1="0%" x2="100%" y2="100%">
      <stop offset="0%" stop-color="#4361EE" />
      <stop offset="100%" stop-color="#3A0CA3" />
    </linearGradient>
    <linearGradient id="textGradient" x1="0%" y1="0%" x2="100%" y2="0%">
      <stop offset="0%" stop-color="#4361EE" />
      <stop offset="50%" stop-color="#9333EA" />
      <stop offset="100%" stop-color="#E11D48" />
    </linearGradient>
  </defs>
  
  <!-- Travel Icons - Simple, Clean Design -->
  
  <!-- Airplane Icon -->
  <path d="M120,90 L160,70 L170,80 L140,110 Z" fill="#4361EE"/>
  
  <!-- Location Pin Icon -->
  <path d="M380,80 C363.4,80 350,93.4 350,110 C350,130 380,160 380,160 C380,160 410,130 410,110 C410,93.4 396.6,80 380,80 Z" fill="#4361EE"/>
  <circle cx="380" cy="110" r="10" fill="white"/>
  
  <!-- Car Icon -->
  <rect x="120" y="180" width="60" height="30" rx="10" fill="#4361EE"/>
  <circle cx="135" cy="210" r="8" fill="white" stroke="#4361EE" stroke-width="2"/>
  <circle cx="165" cy="210" r="8" fill="white" stroke="#4361EE" stroke-width="2"/>
  
  <!-- Building/Hotel Icon -->
  <rect x="360" y="170" width="40" height="60" rx="3" fill="#4361EE"/>
  <rect x="365" y="175" width="10" height="10" rx="1" fill="white"/>
  <rect x="385" y="175" width="10" height="10" rx="1" fill="white"/>
  <rect x="365" y="195" width="10" height="10" rx="1" fill="white"/>
  <rect x="385" y="195" width="10" height="10" rx="1" fill="white"/>
  
  <!-- Company Name -->
  <text x="250" y="270" font-family="'Poppins', sans-serif" font-size="36" font-weight="700" text-anchor="middle" fill="url(#textGradient)">GeniTrip AI</text>
</svg>
