<svg width="800" height="600" xmlns="http://www.w3.org/2000/svg">
  <defs>
    <linearGradient id="grad1" x1="0%" y1="0%" x2="100%" y2="100%">
      <stop offset="0%" style="stop-color:#3498db;stop-opacity:1" />
      <stop offset="100%" style="stop-color:#9b59b6;stop-opacity:1" />
    </linearGradient>
  </defs>
  
  <!-- Background -->
  <rect x="100" y="50" width="600" height="500" rx="20" fill="#f8f9fa" stroke="#e9ecef" stroke-width="2"/>
  
  <!-- Sky -->
  <rect x="120" y="70" width="560" height="200" rx="10" fill="#e1f5fe"/>
  
  <!-- Sun -->
  <circle cx="180" cy="120" r="40" fill="#ffeb3b"/>
  
  <!-- Clouds -->
  <ellipse cx="260" cy="100" rx="40" ry="20" fill="white"/>
  <ellipse cx="290" cy="110" rx="35" ry="25" fill="white"/>
  <ellipse cx="240" cy="110" rx="35" ry="15" fill="white"/>
  
  <ellipse cx="560" cy="130" rx="50" ry="25" fill="white"/>
  <ellipse cx="590" cy="140" rx="45" ry="30" fill="white"/>
  <ellipse cx="540" cy="140" rx="40" ry="20" fill="white"/>
  
  <!-- Land/Water -->
  <rect x="120" y="270" width="560" height="260" fill="#e1f5fe"/>
  
  <!-- Beach -->
  <path d="M120,270 Q400,350 680,270 L680,530 L120,530 Z" fill="#fff9c4"/>
  
  <!-- Palm Tree -->
  <rect x="180" y="290" width="15" height="100" fill="#795548"/>
  <path d="M188,290 C160,260 140,280 168,310" fill="#4caf50"/>
  <path d="M188,290 C220,260 230,280 208,310" fill="#4caf50"/>
  <path d="M188,270 C160,240 145,255 168,290" fill="#4caf50"/>
  <path d="M188,270 C220,240 235,255 208,290" fill="#4caf50"/>
  
  <!-- Hotel/Resort -->
  <rect x="500" y="320" width="150" height="100" fill="white" stroke="#e0e0e0" stroke-width="2"/>
  <rect x="510" y="330" width="30" height="30" fill="#bbdefb"/>
  <rect x="550" y="330" width="30" height="30" fill="#bbdefb"/>
  <rect x="590" y="330" width="30" height="30" fill="#bbdefb"/>
  <rect x="510" y="370" width="30" height="30" fill="#bbdefb"/>
  <rect x="550" y="370" width="30" height="30" fill="#bbdefb"/>
  <rect x="590" y="370" width="30" height="30" fill="#bbdefb"/>
  <rect x="540" y="420" width="40" height="50" fill="white"/>
  
  <!-- Road -->
  <path d="M120,480 C250,460 400,490 600,450" stroke="#9e9e9e" stroke-width="10" fill="none"/>
  
  <!-- Car -->
  <rect x="300" y="445" width="80" height="30" rx="10" fill="#e53935"/>
  <rect x="320" y="430" width="40" height="20" rx="5" fill="#f5f5f5"/>
  <circle cx="320" cy="475" r="10" fill="#424242"/>
  <circle cx="360" cy="475" r="10" fill="#424242"/>
  
  <!-- Plane -->
  <path d="M600,200 L630,180 L650,190 L630,210 Z" fill="#f5f5f5" stroke="#e0e0e0" stroke-width="1"/>
  <path d="M630,180 L650,120 L660,120 L650,190 Z" fill="#f5f5f5" stroke="#e0e0e0" stroke-width="1"/>
  <path d="M650,190 L690,200 L690,210 L630,210 Z" fill="#f5f5f5" stroke="#e0e0e0" stroke-width="1"/>
  
  <!-- Map Pins -->
  <circle cx="200" cy="350" r="15" fill="#3498db"/>
  <circle cx="200" cy="350" r="5" fill="white"/>
  
  <circle cx="550" cy="300" r="15" fill="#e74c3c"/>
  <circle cx="550" cy="300" r="5" fill="white"/>
  
  <!-- Route Line -->
  <path d="M200,350 C300,320 400,310 550,300" stroke="#3498db" stroke-width="3" stroke-dasharray="5,5" fill="none"/>
  
  <!-- Calendar Element -->
  <rect x="150" y="380" width="120" height="120" rx="5" fill="white" stroke="#e0e0e0" stroke-width="2"/>
  <rect x="150" y="380" width="120" height="30" rx="5" fill="#3498db"/>
  <line x1="150" y1="410" x2="270" y2="410" stroke="#e0e0e0" stroke-width="2"/>
  <line x1="180" y1="380" x2="180" y2="500" stroke="#e0e0e0" stroke-width="1"/>
  <line x1="210" y1="380" x2="210" y2="500" stroke="#e0e0e0" stroke-width="1"/>
  <line x1="240" y1="380" x2="240" y2="500" stroke="#e0e0e0" stroke-width="1"/>
  <line x1="150" y1="440" x2="270" y2="440" stroke="#e0e0e0" stroke-width="1"/>
  <line x1="150" y1="470" x2="270" y2="470" stroke="#e0e0e0" stroke-width="1"/>
  <circle cx="210" cy="455" r="15" fill="#e74c3c"/>
  <text x="210" y="460" font-family="Arial" font-size="15" fill="white" text-anchor="middle">15</text>
  
  <!-- Travel Icons -->
  <circle cx="400" cy="400" r="30" fill="url(#grad1)"/>
  <path d="M385,400 L415,400 M400,385 L400,415" stroke="white" stroke-width="4"/>
  
  <circle cx="460" cy="400" r="30" fill="url(#grad1)"/>
  <path d="M450,390 L470,410 M470,390 L450,410" stroke="white" stroke-width="4"/>
</svg> 